<svg width="37" height="36" fill="none" xmlns="http://www.w3.org/2000/svg"><path fill-rule="evenodd" clip-rule="evenodd" d="M31.084 15.418c0 3.497-1.2 6.716-3.16 9.3l6.76 6.715c1 .993 1 2.583 0 3.576-.48.517-1.16.755-1.8.755-.64 0-1.32-.278-1.8-.755l-6.801-6.755-.08-.08a15.546 15.546 0 0 1-8.681 2.663C6.96 30.837 0 23.922 0 15.418 0 6.914 6.96 0 15.522 0c8.56 0 15.562 6.914 15.562 15.418zM15.515 29.823c8.036 0 14.55-6.454 14.55-14.416 0-7.961-6.514-14.415-14.55-14.415C7.48.992.966 7.446.966 15.407c0 7.962 6.514 14.416 14.55 14.416z" fill="#1E2537"/><path fill-rule="evenodd" clip-rule="evenodd" d="M23.374 9.885c.96 0 1.737-.772 1.737-1.725a1.732 1.732 0 0 0-1.737-1.688c-.945 0-1.716.75-1.737 1.688 0 .953.777 1.725 1.737 1.725zm-1.798-2.08-4.407-1.03 4.407 1.03zm-4.407-1.03-1.712 5.189 1.711-5.189zm1.745 14.704c-.87.864-2.272 1.03-3.449 1.03-1.175 0-2.578-.166-3.447-1.03h6.896zM5.567 17.494a2.189 2.189 0 0 1-1.318-2.005c0-.92.579-1.743 1.449-2.058a2.213 2.213 0 0 1 2.442.649l-2.573 3.414zm19.64-4.071a2.213 2.213 0 0 0-2.451.702l2.52 3.405a2.19 2.19 0 0 0 1.407-2.041 2.19 2.19 0 0 0-1.477-2.066z" fill="#fff"/><path fill-rule="evenodd" clip-rule="evenodd" d="M5.002 18.5c0 3.806 4.672 6.903 10.416 6.903 5.744 0 10.416-3.096 10.417-6.903 0-.246-.02-.488-.057-.727a2.6 2.6 0 0 0 1.34-2.284 2.633 2.633 0 0 0-2.638-2.621 2.634 2.634 0 0 0-1.789.694c-1.742-1.127-4.075-1.854-6.658-1.954l1.425-4.32 3.743.875a2.168 2.168 0 0 0 2.173 2.155 2.168 2.168 0 0 0 2.173-2.158 2.168 2.168 0 0 0-2.173-2.159 2.177 2.177 0 0 0-2 1.314l-4.102-.96-.009-.002-.384-.09-1.76 5.336c-2.68.05-5.11.775-6.917 1.926a2.643 2.643 0 0 0-1.75-.658 2.633 2.633 0 0 0-2.638 2.622c0 .91.474 1.754 1.253 2.232a4.637 4.637 0 0 0-.065.779zm.87 0c0-.275.03-.55.088-.818l.004-.01.002-.004a.426.426 0 0 0 .037-.166c.302-1.146 1.117-2.185 2.29-3.017a.445.445 0 0 0 .175-.12c1.742-1.172 4.213-1.904 6.95-1.904 2.764 0 5.257.747 7.002 1.939.049.06.114.105.187.131 1.147.831 1.942 1.863 2.233 3 0 .064.015.129.043.187.053.256.08.517.08.782 0 3.33-4.282 6.038-9.545 6.038S5.873 21.83 5.873 18.5zm17.547-4.416c1.01.802 1.75 1.757 2.13 2.806a1.74 1.74 0 0 0 .698-1.401 1.764 1.764 0 0 0-1.768-1.757c-.383 0-.755.123-1.06.352zM4.685 15.489a1.764 1.764 0 0 1 1.768-1.757c.361 0 .714.11 1.01.315-1.013.795-1.762 1.742-2.153 2.782a1.753 1.753 0 0 1-.625-1.34zm18.688-8.623a1.3 1.3 0 0 0-1.302 1.294 1.3 1.3 0 0 0 1.302 1.293 1.3 1.3 0 0 0 1.302-1.293 1.3 1.3 0 0 0-1.302-1.294zM11.71 21.784c.784.779 2.012 1.157 3.756 1.157 1.744 0 2.973-.378 3.757-1.157a.43.43 0 0 0-.195-.723.437.437 0 0 0-.42.112c-.613.608-1.64.903-3.142.903-1.501 0-2.528-.296-3.14-.903a.438.438 0 0 0-.615 0 .43.43 0 0 0 0 .611z" fill="#1E2537"/><path fill-rule="evenodd" clip-rule="evenodd" d="M10.33 17.243c0-.881.744-1.62 1.63-1.62.887 0 1.606.739 1.606 1.62a1.6 1.6 0 0 1-1.605 1.595c-.887 0-1.631-.715-1.631-1.595zm7.034 0c0-.882.745-1.62 1.632-1.62.887 0 1.606.738 1.606 1.62a1.6 1.6 0 0 1-1.606 1.595c-.887 0-1.632-.714-1.632-1.595z" fill="#FF4500"/></svg>