<svg width="150" height="36" fill="none" xmlns="http://www.w3.org/2000/svg"><ellipse cx="83.118" cy="10.562" rx="1.951" ry="1.938" fill="#FF4500"/><ellipse cx="104.939" cy="10.562" rx="1.951" ry="1.938" fill="#FF4500"/><path fill-rule="evenodd" clip-rule="evenodd" d="M66.703 7.4c.609.002 1.102.492 1.104 1.097V22.59a1.104 1.104 0 0 1-1.104 1.097c-.534 0-.994-.383-1.086-.896-.754.75-1.711 1.134-2.834 1.134-2.907 0-5.263-2.614-5.263-5.831 0-3.218 2.356-5.832 5.263-5.832 1.123 0 2.061.366 2.816 1.115v-4.88A1.104 1.104 0 0 1 66.703 7.4zM55.256 18.825c.957 0 1.51-.713 1.473-1.408a5.129 5.129 0 0 0-.092-.786c-.59-2.522-2.65-4.387-5.098-4.387-2.907 0-5.263 2.614-5.263 5.831 0 3.218 2.355 5.832 5.263 5.832 1.822 0 3.129-.658 4.067-1.7a1.127 1.127 0 0 0-.184-1.682c-.46-.31-1.03-.201-1.454.146l-.033.028c-.413.356-1.178 1.014-2.396 1.014-1.472 0-2.723-1.261-3-2.925h6.717v.037zm-3.735-4.37c1.325 0 2.466 1.024 2.89 2.432h-5.78c.424-1.426 1.565-2.431 2.89-2.431zm-6.055-2.138c.516.091.92.53.92 1.079a1.08 1.08 0 0 1-.993 1.078h-.221c-2.135-.238-3.68 1.444-3.68 3.492v4.624a1.1 1.1 0 0 1-1.179 1.097c-.589-.036-1.03-.548-1.03-1.133v-8.957a1.104 1.104 0 0 1 1.104-1.097c.552 0 1.104.42 1.104 1.097v.146c.865-1.079 2.374-1.663 3.975-1.426zm38.756 2.249a1.104 1.104 0 0 0-2.208 0v8.024a1.104 1.104 0 0 0 2.208 0v-8.024zm-21.42 7.184c-1.694 0-3.055-1.627-3.055-3.656 0-2.011 1.361-3.657 3.055-3.657 1.693 0 3.055 1.628 3.055 3.657s-1.38 3.655-3.055 3.655zM78.223 7.4c.61.002 1.103.492 1.104 1.097V22.59a1.104 1.104 0 0 1-1.104 1.097c-.534 0-.994-.383-1.086-.896-.754.75-1.71 1.134-2.834 1.134-2.907 0-5.263-2.614-5.263-5.831 0-3.218 2.356-5.832 5.263-5.832 1.123 0 2.062.366 2.816 1.115v-4.88A1.104 1.104 0 0 1 78.223 7.4zm-3.92 14.35c-1.693 0-3.054-1.627-3.054-3.656 0-2.011 1.361-3.657 3.054-3.657 1.694 0 3.055 1.628 3.055 3.657s-1.362 3.655-3.055 3.655zm15.514-7.294v8.153c0 .603-.478 1.078-1.123 1.115a1.103 1.103 0 0 1-1.104-1.097v-8.153h-.938a.984.984 0 0 1-.976-1.042c.037-.53.497-.914 1.012-.914h.92v-1.59a1.1 1.1 0 0 1 1.178-1.097c.59.037 1.03.548 1.03 1.133V12.5h1.013a.984.984 0 0 1 .975 1.042c-.037.53-.496.914-1.012.914h-.975zM100.896 22.533V14.38h.975c.516 0 .976-.384 1.012-.915a.983.983 0 0 0-.975-1.041h-1.012v-1.536c0-.585-.442-1.097-1.03-1.133a1.1 1.1 0 0 0-1.178 1.097v1.59h-.92c-.516 0-.976.384-1.013.914a.984.984 0 0 0 .976 1.042h.938v8.153a1.104 1.104 0 0 0 1.105 1.097c.644-.037 1.122-.512 1.122-1.115zm34.111-5.116c.036.695-.516 1.408-1.473 1.408v-.037h-6.717c.277 1.664 1.528 2.925 3 2.925 1.218 0 1.983-.658 2.396-1.014l.033-.028c.424-.347.994-.457 1.454-.146.552.384.644 1.17.184 1.682-.938 1.042-2.245 1.7-4.067 1.7-2.908 0-5.263-2.614-5.263-5.832 0-3.217 2.355-5.831 5.263-5.831 2.448 0 4.509 1.865 5.098 4.387.051.26.081.522.092.786zm-2.319-.53c-.423-1.408-1.564-2.431-2.889-2.431-1.325 0-2.466 1.005-2.89 2.431h5.779zm10.836-3.511c0-.548-.405-.987-.92-1.078-1.601-.238-3.11.347-3.975 1.426v-.147c0-.676-.552-1.097-1.104-1.097a1.103 1.103 0 0 0-1.104 1.097v8.957c0 .585.441 1.097 1.03 1.134a1.1 1.1 0 0 0 1.178-1.097v-4.625c0-2.047 1.546-3.729 3.68-3.491h.221c.552-.037.994-.512.994-1.079zm-38.587-.013a1.102 1.102 0 0 1 1.103 1.096v8.025a1.104 1.104 0 0 1-2.208 0V14.46a1.104 1.104 0 0 1 1.105-1.096zm12.022-.6c.551-.347 1.24-.518 2.061-.518.442 0 .894.074 1.353.222.469.15.897.397 1.284.739.389.343.707.787.956 1.33.25.547.374 1.21.374 1.989v5.897c0 .352-.102.642-.31.857-.208.216-.487.324-.819.324-.332 0-.61-.108-.819-.324-.208-.215-.309-.505-.309-.857v-5.957c0-.704-.182-1.245-.541-1.637-.354-.387-.851-.581-1.511-.581-.659 0-1.152.194-1.499.58-.353.391-.532.934-.532 1.638v5.957c0 .352-.101.642-.309.857-.209.216-.487.324-.819.324-.332 0-.611-.108-.82-.324-.207-.215-.309-.505-.309-.857v-5.957c0-.704-.182-1.245-.54-1.637-.354-.387-.852-.581-1.511-.581-.659 0-1.153.194-1.5.58-.353.391-.531.934-.531 1.638v5.957c0 .352-.102.642-.31.857-.208.216-.487.324-.819.324-.332 0-.61-.108-.819-.324-.208-.215-.309-.505-.309-.857v-8.996c0-.352.101-.642.309-.857.209-.216.487-.324.819-.324.332 0 .611.108.819.324.149.154.243.345.285.57l.008.061.132-.132c.089-.082.187-.16.295-.232l.168-.107c.233-.137.502-.252.809-.344a3.87 3.87 0 0 1 1.107-.14c.562 0 1.119.14 1.669.416.437.22.832.573 1.185 1.056l.099.143.15-.183c.254-.295.53-.549.827-.762l.227-.153zM31.084 15.418c0 3.497-1.2 6.716-3.16 9.3l6.76 6.715c1 .993 1 2.583 0 3.576-.48.517-1.16.755-1.8.755-.64 0-1.32-.278-1.8-.755l-6.801-6.755-.08-.08a15.546 15.546 0 0 1-8.681 2.663C6.96 30.837 0 23.922 0 15.418 0 6.914 6.96 0 15.522 0c8.56 0 15.562 6.914 15.562 15.418zM15.515 29.823c8.036 0 14.55-6.454 14.55-14.416 0-7.961-6.514-14.415-14.55-14.415C7.48.992.966 7.446.966 15.407c0 7.962 6.514 14.416 14.55 14.416z" fill="#1E2537"/><path fill-rule="evenodd" clip-rule="evenodd" d="M23.374 9.885c.96 0 1.737-.772 1.737-1.725a1.732 1.732 0 0 0-1.737-1.688c-.945 0-1.716.75-1.737 1.688 0 .953.777 1.725 1.737 1.725zm-1.798-2.08-4.407-1.03 4.407 1.03zm-4.407-1.03-1.712 5.189 1.711-5.189zm1.745 14.704c-.87.864-2.272 1.03-3.449 1.03-1.175 0-2.578-.166-3.447-1.03h6.896zM5.567 17.494a2.189 2.189 0 0 1-1.318-2.005c0-.92.579-1.743 1.449-2.058a2.213 2.213 0 0 1 2.442.649l-2.573 3.414zm19.64-4.071a2.213 2.213 0 0 0-2.451.702l2.52 3.405a2.19 2.19 0 0 0 1.407-2.041 2.19 2.19 0 0 0-1.477-2.066z" fill="#fff"/><path fill-rule="evenodd" clip-rule="evenodd" d="M5.002 18.5c0 3.806 4.672 6.903 10.416 6.903 5.744 0 10.416-3.096 10.417-6.903 0-.246-.02-.488-.057-.727a2.6 2.6 0 0 0 1.34-2.284 2.633 2.633 0 0 0-2.638-2.621 2.634 2.634 0 0 0-1.789.694c-1.742-1.127-4.075-1.854-6.658-1.954l1.425-4.32 3.743.875a2.168 2.168 0 0 0 2.173 2.155 2.168 2.168 0 0 0 2.173-2.158 2.168 2.168 0 0 0-2.173-2.159 2.177 2.177 0 0 0-2 1.314l-4.102-.96-.009-.002-.384-.09-1.76 5.336c-2.68.05-5.11.775-6.917 1.926a2.643 2.643 0 0 0-1.75-.658 2.633 2.633 0 0 0-2.638 2.622c0 .91.474 1.754 1.253 2.232a4.637 4.637 0 0 0-.065.779zm.87 0c0-.275.03-.55.088-.818l.004-.01.002-.004a.426.426 0 0 0 .037-.166c.302-1.146 1.117-2.185 2.29-3.017a.445.445 0 0 0 .175-.12c1.742-1.172 4.213-1.904 6.95-1.904 2.764 0 5.257.747 7.002 1.939.049.06.114.105.187.131 1.147.831 1.942 1.863 2.233 3 0 .064.015.129.043.187.053.256.08.517.08.782 0 3.33-4.282 6.038-9.545 6.038S5.873 21.83 5.873 18.5zm17.547-4.416c1.01.802 1.75 1.757 2.13 2.806a1.74 1.74 0 0 0 .698-1.401 1.764 1.764 0 0 0-1.768-1.757c-.383 0-.755.123-1.06.352zM4.685 15.489a1.764 1.764 0 0 1 1.768-1.757c.361 0 .714.11 1.01.315-1.013.795-1.762 1.742-2.153 2.782a1.753 1.753 0 0 1-.625-1.34zm18.688-8.623a1.3 1.3 0 0 0-1.302 1.294 1.3 1.3 0 0 0 1.302 1.293 1.3 1.3 0 0 0 1.302-1.293 1.3 1.3 0 0 0-1.302-1.294zM11.71 21.784c.784.779 2.012 1.157 3.756 1.157 1.744 0 2.973-.378 3.757-1.157a.43.43 0 0 0-.195-.723.437.437 0 0 0-.42.112c-.613.608-1.64.903-3.142.903-1.501 0-2.528-.296-3.14-.903a.438.438 0 0 0-.615 0 .43.43 0 0 0 0 .611z" fill="#1E2537"/><path fill-rule="evenodd" clip-rule="evenodd" d="M10.33 17.243c0-.881.744-1.62 1.63-1.62.887 0 1.606.739 1.606 1.62a1.6 1.6 0 0 1-1.605 1.595c-.887 0-1.631-.715-1.631-1.595zm7.034 0c0-.882.745-1.62 1.632-1.62.887 0 1.606.738 1.606 1.62a1.6 1.6 0 0 1-1.606 1.595c-.887 0-1.632-.714-1.632-1.595z" fill="#FF4500"/></svg>